<?xml version="1.0" encoding="utf-8"?>
<!-- Generator: Adobe Illustrator 24.0.1, SVG Export Plug-In . SVG Version: 6.00 Build 0)  -->
<svg version="1.1" id="Laag_1" xmlns="http://www.w3.org/2000/svg" xmlns:xlink="http://www.w3.org/1999/xlink" x="0px" y="0px"
	 viewBox="0 0 300 300" style="enable-background:new 0 0 300 300;" xml:space="preserve">
<style type="text/css">
	.st0{fill:url(#SVGID_1_);}
	.st1{fill:url(#SVGID_2_);}
</style>
<linearGradient id="SVGID_1_" gradientUnits="userSpaceOnUse" x1="30.7252" y1="150" x2="207.3671" y2="150" gradientTransform="matrix(1 0 0 -1 0 300)">
	<stop  offset="0" style="stop-color:#E94081"/>
	<stop  offset="0.2171" style="stop-color:#E63F81"/>
	<stop  offset="0.4368" style="stop-color:#DF3D82"/>
	<stop  offset="0.6576" style="stop-color:#D23983"/>
	<stop  offset="0.878" style="stop-color:#C03384"/>
	<stop  offset="1" style="stop-color:#B33085"/>
</linearGradient>
<path class="st0" d="M30.7,253.8c0-45.2,0-89.7,0-134.7C32.1,120,67,148.9,72.2,153c1.1,0.8,2,0.7,2.9-0.2
	c4.2-4.4,99.9-102.1,103-105.4c1.6-1.7,2.2-1.6,4.7,0.9c3.8,3.7,22,22.5,24.6,25.2C148.7,133.4,89.9,193.4,30.7,253.8z"/>
<linearGradient id="SVGID_2_" gradientUnits="userSpaceOnUse" x1="-1188.1432" y1="-360.8926" x2="-1360.4929" y2="-360.8926" gradientTransform="matrix(-1 0 0 1 -1089.5677 511.5134)">
	<stop  offset="6.961042e-02" style="stop-color:#E94081"/>
	<stop  offset="8.148406e-02" style="stop-color:#E84081"/>
	<stop  offset="0.3497" style="stop-color:#D13984"/>
	<stop  offset="0.6003" style="stop-color:#C13486"/>
	<stop  offset="0.8245" style="stop-color:#B63187"/>
	<stop  offset="1" style="stop-color:#B23087"/>
</linearGradient>
<path class="st1" d="M270.9,48.9c0,45.2-0.2,90.5-0.2,135.5c-1.3-1-31.7-34.7-36.9-38.9c-1.1-0.8-2-0.7-2.9,0.2
	c-4.2,4.4-99.9,102.1-103,105.4c-1.6,1.7-2.2,1.6-4.7-0.9c-3.8-3.7-22-22.5-24.6-25.2C157.4,165.2,211.8,109.2,270.9,48.9z"/>
</svg>